:FULLY-SPECIFIED
:DEGREES
1191
root 3.56435 16.3341 -2.88089 204.264 -92.6982 -199.376
lowerback 0.64213 1.37608 -1.04223
upperback 0.753758 1.82835 -0.0740891
thorax 0.381352 0.908077 0.501931
lowerneck -18.7337 -0.962179 -1.29482
upperneck 20.2908 -2.10107 4.24552
head 9.57573 -0.633936 1.39676
rclavicle -7.95139e-016 8.34896e-015
rhumerus -29.2308 -4.77157 -83.6727
rradius 20.1993
rwrist 31.9143
rhand -25.526 2.19037
rfingers 7.12502
rthumb 1.00359 -27.787
lclavicle -7.95139e-016 8.34896e-015
lhumerus -29.9948 14.0511 83.6038
lradius 14.8352
lwrist -25.4448
lhand -25.0287 2.04609
lfingers 7.12502
lthumb 1.4838 32.0207
rfemur 8.35444 7.05035 28.8481
rtibia 19.2724
rfoot -14.4842 -16.6615
rtoes -25.7449
lfemur -28.5416 -12.5489 -19.3204
ltibia 29.125
lfoot -6.96455 2.51465
ltoes -12.8728
1192
root 3.55134 16.363 -2.84965 202.613 -92.4049 -197.731
lowerback 0.64693 1.40759 -1.16755
upperback 0.709124 1.86976 -0.141879
thorax 0.330598 0.928838 0.501649
lowerneck -18.7479 -0.874588 -1.2461
upperneck 20.4698 -1.99251 4.19452
head 9.63673 -0.585001 1.38702
rclavicle 1.82882e-014 9.14409e-015
rhumerus -29.2874 -5.16086 -83.4958
rradius 19.9061
rwrist 32.9856
rhand -25.1181 2.2385
rfingers 7.12502
rthumb 1.39751 -27.7367
lclavicle 1.82882e-014 9.14409e-015
lhumerus -30.1325 13.7285 83.7481
lradius 15.0092
lwrist -24.9875
lhand -24.9355 2.17678
lfingers 7.12502
lthumb 1.57389 32.1507
rfemur 6.80992 5.98167 28.1836
rtibia 22.7152
rfoot -14.5141 -15.3823
rtoes -26.5385
lfemur -27.7006 -12.5482 -19.6603
ltibia 28.5971
lfoot -7.19195 2.66275
ltoes -12.7467
1193
root 3.53789 16.395 -2.81796 196.408 -92.0394 -191.605
lowerback 0.678182 1.46131 -1.44928
upperback 0.710841 1.93942 -0.268354
thorax 0.308765 0.962598 0.528611
lowerneck -18.7657 -0.808019 -1.1256
upperneck 20.6306 -1.92323 4.10241
head 9.69242 -0.553456 1.34544
rclavicle 1.35174e-014 6.36111e-015
rhumerus -29.3995 -5.10194 -83.5733
rradius 19.8448
rwrist 32.9653
rhand -24.8218 2.18602
rfingers 7.12502
rthumb 1.68372 -27.7871
lclavicle 1.35174e-014 6.36111e-015
lhumerus -30.2637 13.2501 83.9252
lradius 15.2398
lwrist -24.4645
lhand -24.945 2.1646
lfingers 7.12502
lthumb 1.56472 32.1386
rfemur 5.296 4.82207 27.2937
rtibia 26.1959
rfoot -14.2592 -13.9644
rtoes -27.0237
lfemur -26.6678 -12.3946 -20.2428
ltibia 27.8822
lfoot -7.32572 2.77071
ltoes -12.8132
1194
root 3.52833 16.4264 -2.786 190.704 -91.7238 -185.943
lowerback 0.715319 1.46334 -1.65103
upperback 0.704156 1.9401 -0.339321
thorax 0.276937 0.962298 0.567609
lowerneck -18.8593 -0.700882 -1.01959
upperneck 20.8205 -1.79102 3.99984
head 9.77083 -0.493775 1.31165
rclavicle 3.4191e-014 -1.39149e-014
rhumerus -29.4501 -5.21792 -83.5031
rradius 19.7937
rwrist 33.4994
rhand -24.2248 2.27543
rfingers 7.12502
rthumb 2.26027 -27.6923
lclavicle 3.4191e-014 -1.39149e-014
lhumerus -30.3658 12.8426 84.1141
lradius 15.4693
lwrist -23.9391
lhand -24.8756 2.08572
lfingers 7.12502
lthumb 1.63173 32.0592
rfemur 3.68056 3.64343 26.4877
rtibia 29.6154
rfoot -13.5725 -12.6633
rtoes -27.237
lfemur -25.6912 -12.4538 -20.6384
ltibia 27.113
lfoot -7.46409 2.95415
ltoes -12.2661
1195
root 3.51989 16.4564 -2.75432 176.657 -91.4565 -171.947
lowerback 0.772385 1.45668 -1.99854
upperback 0.689873 1.92722 -0.443074
thorax 0.222877 0.954831 0.653901
lowerneck -18.894 -0.591728 -0.963788
upperneck 20.9865 -1.6441 3.91411
head 9.83038 -0.430514 1.29396
rclavicle -1.19271e-014 5.96354e-015
rhumerus -29.4857 -5.20628 -83.4836
rradius 19.6836
rwrist 33.8458
rhand -24.2445 2.36713
rfingers 7.12502
rthumb 2.24126 -27.6008
lclavicle -1.19271e-014 5.96354e-015
lhumerus -30.5246 12.028 84.4707
lradius 15.8207
lwrist -23.0927
lhand -24.7651 2.03834
lfingers 7.12502
lthumb 1.73846 32.011
rfemur 2.04906 2.4379 25.502
rtibia 33.0154
rfoot -12.6576 -11.3904
rtoes -27.081
lfemur -24.6133 -12.4301 -21.2541
ltibia 26.2093
lfoot -7.51682 3.04395
ltoes -11.9903
1196
root 3.51428 16.4855 -2.72239 158.736 -91.3413 -154.126
lowerback 0.908158 1.45412 -2.28163
upperback 0.696979 1.91697 -0.585955
thorax 0.150083 0.948902 0.662314
lowerneck -18.9542 -0.5084 -0.832835
upperneck 21.1223 -1.54047 3.77676
head 9.88465 -0.386982 1.23945
rclavicle 3.26007e-014 -7.15625e-015
rhumerus -29.5331 -4.91038 -83.6571
rradius 19.8089
rwrist 33.3528
rhand -23.7185 2.27308
rfingers 7.12502
rthumb 2.74921 -27.689
lclavicle 3.26007e-014 -7.15625e-015
lhumerus -30.6031 11.0812 84.828
lradius 16.136
lwrist -22.1225
lhand -24.753 2.06519
lfingers 7.12502
lthumb 1.75009 32.0378
rfemur 0.418421 1.37479 24.5731
rtibia 36.354
rfoot -11.2745 -10.4357
rtoes -26.4996
lfemur -23.5284 -12.3505 -21.9041
ltibia 25.3315
lfoot -7.55516 3.10526
ltoes -11.9164
1197
root 3.51118 16.5111 -2.69002 139.216 -91.4264 -134.63
lowerback 0.950264 1.38347 -2.66668
upperback 0.705768 1.81751 -0.667363
thorax 0.12916 0.897556 0.794102
lowerneck -19.0484 -0.361815 -0.810663
upperneck 21.2629 -1.32565 3.68216
head 9.94523 -0.295383 1.23388
rclavicle 2.38542e-015 -2.78299e-015
rhumerus -29.5639 -4.5097 -83.7511
rradius 19.9809
rwrist 33.2325
rhand -23.6418 2.2741
rfingers 7.12502
rthumb 2.82325 -27.687
lclavicle 2.38542e-015 -2.78299e-015
lhumerus -30.6783 10.5761 85.1038
lradius 16.4298
lwrist -21.5396
lhand -24.6069 1.84724
lfingers 7.12502
lthumb 1.8912 31.8186
rfemur -1.322 0.269633 23.5832
rtibia 39.6637
rfoot -9.66488 -9.62769
rtoes -25.5947
lfemur -22.5172 -12.2911 -22.5901
ltibia 24.3653
lfoot -7.50136 3.12786
ltoes -11.2231
1198
root 3.51351 16.5271 -2.66034 125.433 -91.5831 -120.882
lowerback 1.06679 1.36877 -2.88547
upperback 0.688348 1.78967 -0.813281
thorax 0.0450127 0.883545 0.763967
lowerneck -19.0335 -0.296621 -0.719301
upperneck 21.3146 -1.24683 3.60664
head 9.95776 -0.260769 1.20341
rclavicle -1.90833e-014 1.59028e-014
rhumerus -29.5783 -4.51456 -83.8329
rradius 20.1069
rwrist 32.9354
rhand -23.4635 2.42403
rfingers 7.12502
rthumb 2.99545 -27.5347
lclavicle -1.90833e-014 1.59028e-014
lhumerus -30.7687 9.57198 85.4214
lradius 16.7769
lwrist -20.9371
lhand -24.4933 1.8575
lfingers 7.12502
lthumb 2.00099 31.8279
rfemur -3.12686 -0.732971 22.7416
rtibia 42.9035
rfoot -7.60218 -8.93841
rtoes -23.5602
lfemur -21.5094 -12.1979 -23.1671
ltibia 23.3638
lfoot -7.41614 3.14951
ltoes -10.2627
1199
root 3.51492 16.542 -2.63106 113.424 -92.0145 -108.901
lowerback 1.11115 1.31196 -3.35072
upperback 0.717375 1.70572 -0.960165
thorax 0.0439322 0.838913 0.873775
lowerneck -19.0947 -0.203249 -0.674462
upperneck 21.3668 -1.10998 3.5191
head 9.98334 -0.203273 1.18495
rclavicle -7.15625e-015 1.63003e-014
rhumerus -29.6083 -3.97302 -84.0767
rradius 20.425
rwrist 32.1055
rhand -23.6072 2.33884
rfingers 7.12502
rthumb 2.85667 -27.6218
lclavicle -7.15625e-015 1.63003e-014
lhumerus -30.7531 8.72088 85.7786
lradius 17.1028
lwrist -20.1402
lhand -24.4643 1.79045
lfingers 7.12502
lthumb 2.02898 31.7605
rfemur -4.91719 -1.71815 21.7145
rtibia 46.0931
rfoot -5.15223 -8.33431
rtoes -21.5065
lfemur -20.4922 -12.1737 -23.9717
ltibia 22.3204
lfoot -7.2407 3.1631
ltoes -9.98538
1200
root 3.52233 16.5622 -2.60297 107.16 -92.4332 -102.639
lowerback 1.25113 1.21448 -3.77523
upperback 0.701833 1.56211 -1.0457
thorax -0.0534425 0.766731 1.02165
lowerneck -19.1352 -0.0987531 -0.694051
upperneck 21.4007 -0.933816 3.42055
head 9.99781 -0.134515 1.17872
rclavicle 1.43125e-014 -6.75868e-015
rhumerus -29.6125 -3.5454 -84.1964
rradius 20.7028
rwrist 31.7696
rhand -23.6943 2.33599
rfingers 7.12502
rthumb 2.77262 -27.6257
lclavicle 1.43125e-014 -6.75868e-015
lhumerus -30.7489 8.04275 86.1059
lradius 17.38
lwrist -19.6641
lhand -24.3149 1.88695
lfingers 7.12502
lthumb 2.17319 31.8556
rfemur -6.77184 -2.58371 20.8379
rtibia 49.1631
rfoot -2.74444 -7.88559
rtoes -19.7601
lfemur -19.5298 -12.1225 -24.6826
ltibia 21.2902
lfoot -6.92418 3.13108
ltoes -10.1932
1201
root 3.52808 16.576 -2.57427 103.203 -92.8931 -98.7738
lowerback 1.41801 1.17001 -4.12443
upperback 0.750549 1.48766 -1.19323
thorax -0.0983803 0.727436 1.06353
lowerneck -19.1706 -0.0528486 -0.664936
upperneck 21.345 -0.858067 3.35518
head 9.9821 -0.104193 1.16122
rclavicle 2.70347e-014 -1.61016e-014
rhumerus -29.6167 -3.00349 -84.5013
rradius 21.0576
rwrist 30.4343
rhand -24.0393 2.31512
rfingers 7.12502
rthumb 2.43945 -27.6507
lclavicle 2.70347e-014 -1.61016e-014
lhumerus -30.6177 7.13191 86.4438
lradius 17.5384
lwrist -19.2576
lhand -24.3523 1.71417
lfingers 7.12502
lthumb 2.13716 31.6832
rfemur -8.44629 -3.38976 19.9881
rtibia 52.0987
rfoot -1.66494 -7.76124
rtoes -19.729
lfemur -18.4624 -12.0378 -25.4502
ltibia 20.2315
lfoot -6.64963 3.0384
ltoes -9.47716
1202
root 3.53835 16.583 -2.54992 100.267 -93.2285 -95.9326
lowerback 1.61028 1.11698 -4.40685
upperback 0.795399 1.40072 -1.27751
thorax -0.16034 0.682711 1.13284
lowerneck -19.1339 0.010902 -0.636675
upperneck 21.2296 -0.74903 3.26732
head 9.93089 -0.0620915 1.13982
rclavicle 7.15625e-015 -1.88845e-014
rhumerus -29.5853 -2.93113 -84.5256
rradius 21.3361
rwrist 30.4914
rhand -24.1622 2.35381
rfingers 7.12502
rthumb 2.32075 -27.6133
lclavicle 7.15625e-015 -1.88845e-014
lhumerus -30.4661 6.28637 86.7734
lradius 17.7505
lwrist -18.6965
lhand -24.3487 1.82733
lfingers 7.12502
lthumb 2.1406 31.7963
rfemur -10.0344 -4.08698 19.3798
rtibia 54.8314
rfoot -1.80831 -8.33993
rtoes -20.5501
lfemur -17.4554 -11.9812 -26.0326
ltibia 19.2556
lfoot -6.36501 2.9778
ltoes -8.87128
